<svg width="141" height="30" viewBox="0 0 141 30" fill="none" xmlns="http://www.w3.org/2000/svg">
<path d="M3.932 20.54C4.46 21.476 5.036 22.292 5.66 22.988C6.308 23.684 7.016 24.224 7.784 24.608C8.552 24.992 9.38 25.184 10.268 25.184C11.3 25.184 12.14 24.92 12.788 24.392C13.436 23.864 13.76 23.144 13.76 22.232C13.76 21.44 13.556 20.804 13.148 20.324C12.764 19.844 12.176 19.424 11.384 19.064C10.616 18.68 9.668 18.272 8.54 17.84C7.94 17.624 7.244 17.336 6.452 16.976C5.684 16.592 4.952 16.112 4.256 15.536C3.56 14.936 2.984 14.216 2.528 13.376C2.072 12.512 1.844 11.48 1.844 10.28C1.844 8.84 2.204 7.604 2.924 6.572C3.668 5.516 4.664 4.712 5.912 4.16C7.184 3.584 8.6 3.296 10.16 3.296C11.768 3.296 13.148 3.572 14.3 4.124C15.476 4.652 16.448 5.336 17.216 6.176C18.008 6.992 18.62 7.844 19.052 8.732L15.02 10.964C14.684 10.364 14.276 9.824 13.796 9.344C13.34 8.84 12.812 8.444 12.212 8.156C11.612 7.844 10.928 7.688 10.16 7.688C9.152 7.688 8.396 7.928 7.892 8.408C7.388 8.864 7.136 9.404 7.136 10.028C7.136 10.652 7.34 11.204 7.748 11.684C8.156 12.14 8.78 12.584 9.62 13.016C10.46 13.424 11.516 13.844 12.788 14.276C13.604 14.564 14.384 14.924 15.128 15.356C15.896 15.788 16.58 16.316 17.18 16.94C17.804 17.54 18.284 18.26 18.62 19.1C18.98 19.916 19.16 20.864 19.16 21.944C19.16 23.168 18.92 24.26 18.44 25.22C17.96 26.18 17.3 26.996 16.46 27.668C15.62 28.316 14.672 28.808 13.616 29.144C12.584 29.504 11.492 29.684 10.34 29.684C8.804 29.684 7.364 29.396 6.02 28.82C4.7 28.22 3.548 27.416 2.564 26.408C1.58 25.4 0.812 24.308 0.26 23.132L3.932 20.54ZM33.6171 18.92C33.6171 17.816 33.4011 16.976 32.9691 16.4C32.5371 15.824 31.8411 15.536 30.8811 15.536C30.2331 15.536 29.6571 15.68 29.1531 15.968C28.6491 16.232 28.2651 16.616 28.0011 17.12C27.7371 17.624 27.6051 18.224 27.6051 18.92V29H22.9251V12.44H27.6051V14.96C28.1091 14.024 28.7691 13.316 29.5851 12.836C30.4251 12.332 31.4331 12.08 32.6091 12.08C34.5771 12.08 36.0411 12.644 37.0011 13.772C37.9611 14.876 38.4411 16.424 38.4411 18.416V29H33.6171V18.92ZM50.8465 29.36C49.0465 29.36 47.4745 29 46.1305 28.28C44.7865 27.56 43.7425 26.564 42.9985 25.292C42.2785 23.996 41.9185 22.472 41.9185 20.72C41.9185 18.944 42.2785 17.42 42.9985 16.148C43.7425 14.852 44.7865 13.856 46.1305 13.16C47.4745 12.44 49.0585 12.08 50.8825 12.08C52.7065 12.08 54.2545 12.416 55.5265 13.088C56.8225 13.736 57.8065 14.696 58.4785 15.968C59.1505 17.216 59.4865 18.728 59.4865 20.504C59.4865 20.72 59.4745 20.948 59.4505 21.188C59.4505 21.428 59.4385 21.62 59.4145 21.764H44.5825V18.884H55.3465L54.0865 20.54C54.1825 20.396 54.2665 20.204 54.3385 19.964C54.4345 19.7 54.4825 19.484 54.4825 19.316C54.4825 18.5 54.3265 17.804 54.0145 17.228C53.7265 16.652 53.3065 16.196 52.7545 15.86C52.2025 15.524 51.5545 15.356 50.8105 15.356C49.8985 15.356 49.1305 15.56 48.5065 15.968C47.9065 16.352 47.4385 16.94 47.1025 17.732C46.7905 18.5 46.6225 19.46 46.5985 20.612C46.5985 21.716 46.7545 22.652 47.0665 23.42C47.4025 24.188 47.8945 24.776 48.5425 25.184C49.1905 25.592 49.9705 25.796 50.8825 25.796C51.9145 25.796 52.7905 25.604 53.5105 25.22C54.2545 24.812 54.8665 24.212 55.3465 23.42L59.4145 24.68C58.5505 26.24 57.3985 27.416 55.9585 28.208C54.5425 28.976 52.8385 29.36 50.8465 29.36ZM66.3152 23.852C66.3152 24.332 66.4352 24.752 66.6752 25.112C66.9152 25.448 67.2392 25.712 67.6472 25.904C68.0792 26.072 68.5472 26.156 69.0512 26.156C69.7712 26.156 70.4192 26.012 70.9952 25.724C71.5712 25.412 72.0392 24.98 72.3992 24.428C72.7592 23.852 72.9392 23.168 72.9392 22.376L73.5152 24.536C73.5152 25.592 73.2152 26.48 72.6152 27.2C72.0392 27.92 71.2832 28.46 70.3472 28.82C69.4352 29.18 68.4752 29.36 67.4672 29.36C66.4352 29.36 65.4752 29.156 64.5872 28.748C63.6992 28.34 62.9792 27.752 62.4272 26.984C61.8992 26.192 61.6352 25.232 61.6352 24.104C61.6352 22.496 62.1992 21.224 63.3272 20.288C64.4552 19.352 66.0512 18.884 68.1152 18.884C69.1712 18.884 70.0952 18.992 70.8872 19.208C71.7032 19.424 72.3872 19.688 72.9392 20C73.4912 20.312 73.8872 20.612 74.1272 20.9V23.06C73.4792 22.58 72.7472 22.22 71.9312 21.98C71.1392 21.74 70.2992 21.62 69.4112 21.62C68.6912 21.62 68.1032 21.716 67.6472 21.908C67.1912 22.076 66.8552 22.328 66.6392 22.664C66.4232 22.976 66.3152 23.372 66.3152 23.852ZM64.5152 17.12L62.7872 13.952C63.6512 13.496 64.7072 13.064 65.9552 12.656C67.2032 12.224 68.5952 12.008 70.1312 12.008C71.5472 12.008 72.8072 12.212 73.9112 12.62C75.0152 13.028 75.8792 13.628 76.5032 14.42C77.1272 15.188 77.4392 16.136 77.4392 17.264V29H72.9392V18.236C72.9392 17.78 72.8672 17.396 72.7232 17.084C72.5792 16.748 72.3512 16.472 72.0392 16.256C71.7512 16.04 71.4032 15.884 70.9952 15.788C70.5872 15.692 70.1312 15.644 69.6272 15.644C68.8592 15.644 68.1272 15.728 67.4312 15.896C66.7352 16.064 66.1352 16.268 65.6312 16.508C65.1272 16.748 64.7552 16.952 64.5152 17.12ZM81.6687 0.919999H86.1687V29H81.6687V0.919999ZM92.2527 12.44H97.8327L90.7047 19.28L98.5527 29H93.0087L85.1247 19.28L92.2527 12.44ZM108.292 29.36C106.492 29.36 104.92 29 103.576 28.28C102.232 27.56 101.188 26.564 100.444 25.292C99.7238 23.996 99.3638 22.472 99.3638 20.72C99.3638 18.944 99.7238 17.42 100.444 16.148C101.188 14.852 102.232 13.856 103.576 13.16C104.92 12.44 106.504 12.08 108.328 12.08C110.152 12.08 111.7 12.416 112.972 13.088C114.268 13.736 115.252 14.696 115.924 15.968C116.596 17.216 116.932 18.728 116.932 20.504C116.932 20.72 116.92 20.948 116.896 21.188C116.896 21.428 116.884 21.62 116.86 21.764H102.028V18.884H112.792L111.532 20.54C111.628 20.396 111.712 20.204 111.784 19.964C111.88 19.7 111.928 19.484 111.928 19.316C111.928 18.5 111.772 17.804 111.46 17.228C111.172 16.652 110.752 16.196 110.2 15.86C109.648 15.524 109 15.356 108.256 15.356C107.344 15.356 106.576 15.56 105.952 15.968C105.352 16.352 104.884 16.94 104.548 17.732C104.236 18.5 104.068 19.46 104.044 20.612C104.044 21.716 104.2 22.652 104.512 23.42C104.848 24.188 105.34 24.776 105.988 25.184C106.636 25.592 107.416 25.796 108.328 25.796C109.36 25.796 110.236 25.604 110.956 25.22C111.7 24.812 112.312 24.212 112.792 23.42L116.86 24.68C115.996 26.24 114.844 27.416 113.404 28.208C111.988 28.976 110.284 29.36 108.292 29.36ZM125.021 12.44V29H120.449V12.44H125.021ZM129.881 17.3C129.569 17.012 129.245 16.796 128.909 16.652C128.597 16.484 128.201 16.4 127.721 16.4C127.145 16.4 126.653 16.556 126.245 16.868C125.837 17.18 125.525 17.624 125.309 18.2C125.117 18.752 125.021 19.424 125.021 20.216L123.725 18.92C123.725 17.6 123.977 16.436 124.481 15.428C124.985 14.396 125.645 13.58 126.461 12.98C127.277 12.356 128.117 12.044 128.981 12.044C129.581 12.044 130.145 12.152 130.673 12.368C131.225 12.584 131.669 12.908 132.005 13.34L129.881 17.3Z" fill="#111111"/>
<path d="M134.908 26.876C134.908 26.06 135.184 25.376 135.736 24.824C136.312 24.248 137.02 23.96 137.86 23.96C138.724 23.96 139.432 24.248 139.984 24.824C140.536 25.376 140.812 26.06 140.812 26.876C140.812 27.644 140.536 28.316 139.984 28.892C139.432 29.468 138.724 29.756 137.86 29.756C137.02 29.756 136.312 29.468 135.736 28.892C135.184 28.316 134.908 27.644 134.908 26.876Z" fill="#C8815F"/>
</svg>
